<svg width="274" height="97" viewBox="0 0 274 97" fill="none" xmlns="http://www.w3.org/2000/svg">
<circle cx="40.2466" cy="40.2014" r="40.1957" fill="#F423BA"/>
<circle cx="60.3444" cy="55.8331" r="40.1957" fill="#1E5ED9"/>
<path d="M136.917 35.0904V28.2445H169.171V35.0904H157.148V67.5172H148.94V35.0904H136.917ZM171.811 67.5172V38.0627H179.73V43.2019H180.037C180.574 41.3737 181.476 39.9931 182.741 39.0598C184.007 38.1138 185.464 37.6408 187.113 37.6408C187.522 37.6408 187.963 37.6664 188.436 37.7175C188.909 37.7686 189.325 37.8389 189.683 37.9284V45.177C189.299 45.062 188.769 44.9597 188.091 44.8702C187.414 44.7807 186.794 44.736 186.231 44.736C185.029 44.736 183.956 44.998 183.01 45.5222C182.076 46.0335 181.335 46.7495 180.785 47.6699C180.248 48.5904 179.98 49.6514 179.98 50.8531V67.5172H171.811ZM194.446 67.5172V38.0627H202.615V67.5172H194.446ZM198.55 34.2658C197.336 34.2658 196.294 33.8631 195.424 33.0577C194.568 32.2395 194.14 31.2615 194.14 30.1237C194.14 28.9987 194.568 28.0335 195.424 27.2281C196.294 26.41 197.336 26.0009 198.55 26.0009C199.765 26.0009 200.8 26.41 201.657 27.2281C202.526 28.0335 202.961 28.9987 202.961 30.1237C202.961 31.2615 202.526 32.2395 201.657 33.0577C200.8 33.8631 199.765 34.2658 198.55 34.2658ZM209.853 67.5172V28.2445H218.022V43.0101H218.271C218.629 42.2175 219.147 41.4121 219.824 40.5939C220.515 39.763 221.41 39.0726 222.509 38.5229C223.621 37.9604 225.002 37.6791 226.651 37.6791C228.799 37.6791 230.78 38.2416 232.596 39.3666C234.411 40.4789 235.862 42.16 236.949 44.41C238.035 46.6472 238.579 49.4533 238.579 52.8283C238.579 56.1138 238.048 58.888 236.987 61.1507C235.939 63.4007 234.507 65.1074 232.692 66.2708C230.889 67.4213 228.869 67.9966 226.632 67.9966C225.047 67.9966 223.698 67.7345 222.586 67.2104C221.486 66.6862 220.585 66.0279 219.882 65.2353C219.179 64.4299 218.642 63.6181 218.271 62.7999H217.907V67.5172H209.853ZM217.849 52.7899C217.849 54.5414 218.092 56.0691 218.578 57.373C219.064 58.677 219.767 59.6933 220.687 60.422C221.608 61.138 222.726 61.4959 224.043 61.4959C225.373 61.4959 226.498 61.1316 227.418 60.4029C228.339 59.6614 229.035 58.6387 229.508 57.3347C229.994 56.0179 230.237 54.503 230.237 52.7899C230.237 51.0897 230 49.5939 229.527 48.3027C229.054 47.0115 228.358 46.0016 227.437 45.2729C226.517 44.5442 225.385 44.1799 224.043 44.1799C222.714 44.1799 221.589 44.5314 220.668 45.2345C219.76 45.9377 219.064 46.9348 218.578 48.226C218.092 49.5172 217.849 51.0385 217.849 52.7899ZM257.993 68.0925C254.963 68.0925 252.355 67.4789 250.169 66.2516C247.996 65.0115 246.321 63.2601 245.145 60.9973C243.969 58.7218 243.381 56.0307 243.381 52.9242C243.381 49.8943 243.969 47.2353 245.145 44.9469C246.321 42.6585 247.976 40.8752 250.111 39.5968C252.259 38.3183 254.778 37.6791 257.667 37.6791C259.61 37.6791 261.419 37.9924 263.094 38.6188C264.781 39.2324 266.251 40.1593 267.504 41.3993C268.77 42.6394 269.754 44.199 270.457 46.0783C271.16 47.9448 271.512 50.1308 271.512 52.6365V54.8801H246.64V49.8176H263.822C263.822 48.6415 263.567 47.5996 263.055 46.6919C262.544 45.7843 261.834 45.0747 260.927 44.5634C260.032 44.0392 258.99 43.7772 257.801 43.7772C256.561 43.7772 255.461 44.0648 254.503 44.6401C253.557 45.2026 252.815 45.9632 252.278 46.922C251.741 47.8681 251.466 48.9228 251.454 50.0861V54.8993C251.454 56.3567 251.722 57.6159 252.259 58.677C252.809 59.7381 253.582 60.5563 254.579 61.1316C255.577 61.7068 256.759 61.9945 258.127 61.9945C259.035 61.9945 259.866 61.8666 260.62 61.611C261.374 61.3553 262.02 60.9718 262.557 60.4604C263.094 59.949 263.503 59.3226 263.784 58.5811L271.339 59.0797C270.956 60.8951 270.17 62.4803 268.981 63.8354C267.805 65.1777 266.283 66.226 264.417 66.9803C262.563 67.7218 260.422 68.0925 257.993 68.0925Z" fill="white"/>
</svg>
