<svg width="243" height="22" viewBox="0 0 243 22" fill="none" xmlns="http://www.w3.org/2000/svg">
<path d="M120.278 11.6021C120.278 12.89 120.049 14.0109 119.59 14.9647C119.131 15.9145 118.499 16.651 117.694 17.1742C116.893 17.6934 115.972 17.953 114.929 17.953C113.887 17.953 112.963 17.6934 112.158 17.1742C111.357 16.651 110.728 15.9145 110.269 14.9647C109.814 14.0109 109.587 12.89 109.587 11.6021C109.587 10.3142 109.814 9.19539 110.269 8.24558C110.728 7.29175 111.359 6.55524 112.164 6.03607C112.969 5.51286 113.891 5.25126 114.929 5.25126C115.972 5.25126 116.893 5.51286 117.694 6.03607C118.499 6.55524 119.131 7.29175 119.59 8.24558C120.049 9.19539 120.278 10.3142 120.278 11.6021ZM119.179 11.6021C119.179 10.4953 118.994 9.54755 118.624 8.75872C118.254 7.96587 117.749 7.36017 117.109 6.94161C116.469 6.52304 115.742 6.31376 114.929 6.31376C114.12 6.31376 113.396 6.52304 112.756 6.94161C112.116 7.36017 111.609 7.96386 111.235 8.75269C110.864 9.54151 110.679 10.4913 110.679 11.6021C110.679 12.7089 110.864 13.6567 111.235 14.4455C111.605 15.2343 112.11 15.84 112.75 16.2626C113.39 16.6812 114.116 16.8905 114.929 16.8905C115.742 16.8905 116.469 16.6812 117.109 16.2626C117.753 15.8441 118.26 15.2404 118.63 14.4515C119 13.6587 119.183 12.7089 119.179 11.6021ZM123.178 17.7839V5.4203H127.169C128.046 5.4203 128.779 5.57927 129.366 5.89722C129.958 6.21114 130.402 6.64781 130.7 7.20723C131.002 7.76263 131.153 8.40053 131.153 9.12094C131.153 9.84135 131.002 10.4772 130.7 11.0286C130.402 11.58 129.96 12.0106 129.372 12.3205C128.785 12.6304 128.056 12.7854 127.187 12.7854H123.788V11.753H127.157C127.801 11.753 128.336 11.6464 128.762 11.4331C129.193 11.2198 129.513 10.9159 129.722 10.5215C129.936 10.1271 130.042 9.66024 130.042 9.12094C130.042 8.58164 129.936 8.11076 129.722 7.7083C129.509 7.30181 129.187 6.98789 128.756 6.76653C128.33 6.54518 127.79 6.4345 127.138 6.4345H124.307V17.7839H123.178ZM128.63 12.2058L131.672 17.7839H130.368L127.356 12.2058H128.63Z" fill="#898989"/>
<line x1="148.606" y1="12.0618" x2="241.879" y2="12.0618" stroke="url(#paint0_linear_104_115)" stroke-width="2" stroke-linecap="round"/>
<line x1="94.8203" y1="12.0618" x2="1.54785" y2="12.0618" stroke="url(#paint1_linear_104_115)" stroke-width="2" stroke-linecap="round"/>
<defs>
<linearGradient id="paint0_linear_104_115" x1="148.607" y1="11.8737" x2="235.463" y2="13.062" gradientUnits="userSpaceOnUse">
<stop stop-color="#787878"/>
<stop offset="1" stop-color="#787878" stop-opacity="0"/>
</linearGradient>
<linearGradient id="paint1_linear_104_115" x1="94.8193" y1="12.2498" x2="7.96408" y2="11.0615" gradientUnits="userSpaceOnUse">
<stop stop-color="#787878"/>
<stop offset="1" stop-color="#787878" stop-opacity="0"/>
</linearGradient>
</defs>
</svg>
